<svg xmlns="http://www.w3.org/2000/svg" viewBox="0 0 512 512" role="img" aria-labelledby="title desc"><title id="title">FamOS</title><desc id="desc">A hand-drawn family home with a shared calendar and reward star</desc><rect width="512" height="512" rx="112" fill="#FFF9EC"/><path d="M72 231 247 83c7-6 17-6 24 0l169 147" fill="none" stroke="#17172F" stroke-width="28" stroke-linecap="round" stroke-linejoin="round"/><path d="M111 215v200c0 14 11 25 25 25h239c14 0 25-11 25-25V218" fill="#FFFFFF" stroke="#17172F" stroke-width="24" stroke-linecap="round" stroke-linejoin="round"/><path d="M162 247h188c10 0 18 8 18 18v123c0 10-8 18-18 18H162c-10 0-18-8-18-18V265c0-10 8-18 18-18Z" fill="#F1EDFF" stroke="#17172F" stroke-width="18"/><path d="M145 297h222" stroke="#17172F" stroke-width="15" stroke-linecap="round"/><path d="M191 229v38M320 229v38" stroke="#17172F" stroke-width="18" stroke-linecap="round"/><circle cx="196" cy="344" r="21" fill="#FF9B8C"/><circle cx="256" cy="344" r="21" fill="#86D8BD"/><circle cx="316" cy="344" r="21" fill="#A89CEB"/><path d="m397 119 12 25 28 4-20 20 5 28-25-13-25 13 5-28-20-20 28-4Z" fill="#FFD86B" stroke="#17172F" stroke-width="10" stroke-linejoin="round"/><path d="M91 160c-13 8-22 20-26 35M421 348c10 9 16 20 18 34" fill="none" stroke="#17172F" stroke-width="10" stroke-linecap="round"/></svg>
